HIERARCHY
ROOT Hips
{
	OFFSET -3.958830 18.904000 13.208200
	CHANNELS 6 Xposition Yposition Zposition Zrotation Yrotation Xrotation 
	JOINT LHipJoint
	{
		OFFSET 0.000000 0.000000 0.000000
		CHANNELS 3 Zrotation Yrotation Xrotation
		JOINT LeftUpLeg
		{
			OFFSET 1.800000 -1.400000 0.085000
			CHANNELS 3 Zrotation Yrotation Xrotation
			JOINT LeftLeg
			{
				OFFSET 2.215000 -6.000000 0.000000
				CHANNELS 3 Zrotation Yrotation Xrotation
				JOINT LeftFoot
				{
					OFFSET 2.500000 -6.900000 0.000000
					CHANNELS 3 Zrotation Yrotation Xrotation
					JOINT LeftToeBase
					{
						OFFSET 0.200000 -0.500000 1.950000
						CHANNELS 3 Zrotation Yrotation Xrotation
						End Site
						{
							OFFSET 0.000000 0.000000 0.000000
						}
					}
				}
			}
		}
	}
	JOINT RHipJoint
	{
		OFFSET 0.000000 0.000000 0.000000
		CHANNELS 3 Zrotation Yrotation Xrotation
		JOINT RightUpLeg
		{
			OFFSET -1.800000 -1.400000 0.085000
			CHANNELS 3 Zrotation Yrotation Xrotation
			JOINT RightLeg
			{
				OFFSET -2.215000 -6.000000 0.000000
				CHANNELS 3 Zrotation Yrotation Xrotation
				JOINT RightFoot
				{
					OFFSET -2.500000 -6.900000 0.000000
					CHANNELS 3 Zrotation Yrotation Xrotation
					JOINT RightToeBase
					{
						OFFSET -0.200000 -0.500000 1.950000
						CHANNELS 3 Zrotation Yrotation Xrotation
						End Site
						{
							OFFSET 0.000000 0.000000 0.000000
						}
					}
				}
			}
		}
	}
	JOINT LowerBack
	{
		OFFSET 0.000000 0.000000 0.000000
		CHANNELS 3 Zrotation Yrotation Xrotation
		JOINT Spine
		{
			OFFSET -0.087000 1.940000 -0.288900
			CHANNELS 3 Zrotation Yrotation Xrotation
			JOINT Spine1
			{
				OFFSET 0.000000 1.950000 0.060000
				CHANNELS 3 Zrotation Yrotation Xrotation
				JOINT Neck
				{
					OFFSET 0.000000 0.000000 0.000000
					CHANNELS 3 Zrotation Yrotation Xrotation
					JOINT Neck1
					{
						OFFSET 0.000000 1.600000 0.340000
						CHANNELS 3 Zrotation Yrotation Xrotation
						JOINT Head
						{
							OFFSET 0.000000 1.667000 -0.240000
							CHANNELS 3 Zrotation Yrotation Xrotation
							End Site
							{
								OFFSET 0.000000 0.000000 0.000000
							}
						}
					}
				}
				JOINT LeftShoulder
				{
					OFFSET 0.000000 0.000000 0.000000
					CHANNELS 3 Zrotation Yrotation Xrotation
					JOINT LeftArm
					{
						OFFSET 2.700000 1.550000 -0.730000
						CHANNELS 3 Zrotation Yrotation Xrotation
						JOINT LeftForeArm
						{
							OFFSET 5.450000 0.000000 0.000000
							CHANNELS 3 Zrotation Yrotation Xrotation
							JOINT LeftHand
							{
								OFFSET 3.450000 0.000000 0.000000
								CHANNELS 3 Zrotation Yrotation Xrotation
								JOINT LeftHandIndex1
								{
									OFFSET 0.750000 0.000000 0.000000
									CHANNELS 3 Zrotation Yrotation Xrotation
									End Site
									{
										OFFSET 0.000000 0.000000 0.000000
									}
								}
							}
						}
					}
				}
				JOINT RightShoulder
				{
					OFFSET 0.000000 0.000000 0.000000
					CHANNELS 3 Zrotation Yrotation Xrotation
					JOINT RightArm
					{
						OFFSET -2.700000 1.550000 -0.730000
						CHANNELS 3 Zrotation Yrotation Xrotation
						JOINT RightForeArm
						{
							OFFSET -5.450000 0.000000 0.000000
							CHANNELS 3 Zrotation Yrotation Xrotation
							JOINT RightHand
							{
								OFFSET -3.450000 0.000000 0.000000
								CHANNELS 3 Zrotation Yrotation Xrotation
								JOINT RightHandIndex1
								{
									OFFSET -0.750000 0.000000 0.000000
									CHANNELS 3 Zrotation Yrotation Xrotation
									End Site
									{
										OFFSET 0.000000 0.000000 0.000000
									}
								}
							}
						}
					}
				}
			}
		}
	}
}
MOTION
Frames: 8
Frame Time: 0.016667
-0.680520 16.989120 -1.635630 -2.981771 6.414598 -0.067843 -14.754486 13.110734 2.128964 9.258740 -0.833712 -13.691819 -2.943505 6.038383 18.771952 -0.509050 4.666314 3.453335 0.161090 -0.312050 -0.156850 18.573532 -11.837500 2.429448 -20.885170 0.975646 -15.811098 11.707182 -9.887816 23.948448 -0.034681 -5.829307 2.750723 0.014130 0.988750 0.140560 -4.752559 0.394393 -6.368467 14.702793 0.058459 0.698591 -10.451571 0.191886 8.292550 2.113367 -4.885161 -7.538999 -8.096146 3.465689 25.834362 -1.249610 -2.807690 7.790760 -15.848501 0.474892 2.425841 -51.053567 -0.045026 -7.682375 19.544321 -38.683274 -7.212398 -4.077976 2.956012 0.094040 0.662830 -0.730610 0.451930 11.294565 3.646685 5.020837 60.485648 10.853984 0.258486 55.214204 60.634853 25.173974 1.817987 -2.161522 -0.426890 0.369230 0.092520 -0.075500 
-0.670570 16.994990 -1.644140 -3.015181 6.924585 -0.115692 -14.714730 13.058219 2.140726 9.400134 -0.853048 -13.957731 -3.261701 6.164547 19.041178 -0.507366 4.713274 3.433645 0.164200 -0.313270 -0.153520 18.606206 -11.909862 2.408406 -20.868275 0.903747 -15.051844 11.428590 -9.731888 23.346403 -0.045792 -5.781135 2.768573 0.009450 0.988470 0.153920 -4.870385 0.581167 -6.377005 16.018864 0.047386 0.604047 -11.738129 0.217438 8.582080 2.491773 -4.906835 -7.658778 -8.121139 3.453013 26.263976 -1.320720 -2.956620 7.550850 -15.844117 0.194410 2.522421 -50.512376 0.165808 -7.682142 20.462664 -38.680487 -7.436326 -4.074585 2.947443 0.110930 0.657470 -0.714070 0.456530 10.477836 3.905517 5.220724 60.973576 11.737674 1.163190 57.478850 61.908298 27.084362 1.832738 -2.154038 -0.424210 0.373850 0.094280 -0.073610 
-0.660480 16.999670 -1.659900 -2.946802 8.025991 -0.203671 -14.658631 12.947708 2.150806 9.537192 -0.883689 -14.402850 -3.596044 6.320878 19.522839 -0.536889 4.746661 3.396025 0.191850 -0.276420 -0.117360 18.653103 -12.056497 2.389040 -20.760224 0.836854 -14.242241 10.933539 -9.589284 22.977317 -0.061314 -5.763902 2.778050 0.033820 0.950470 0.159160 -5.046460 1.003663 -6.393091 17.637938 0.134180 0.374542 -13.918084 0.321071 9.141959 3.470551 -4.196533 -7.607290 -6.733705 3.064509 26.852657 -2.328650 -2.443840 6.972140 -16.015722 0.035247 2.572747 -48.878239 0.676894 -7.826504 23.803457 -41.084567 -8.727092 -4.055765 2.938164 0.127540 0.656180 -0.690680 0.447580 8.661438 3.558504 5.305604 62.372442 13.878298 3.279329 59.658007 64.236049 29.619119 1.829659 -2.157225 -0.421320 0.364800 0.081230 -0.096930 
-0.646900 17.007140 -1.671650 -2.614982 9.441553 -0.181213 -14.608701 12.807682 2.159959 9.409682 -0.919328 -14.752297 -3.973333 6.443123 19.756409 -0.574814 4.781798 3.388897 0.181710 -0.278970 -0.102790 18.695437 -12.206169 2.390590 -20.729722 0.765137 -13.289161 10.587053 -9.383374 22.037756 -0.056054 -5.738463 2.808838 0.047740 0.960780 0.157460 -5.216660 1.495067 -6.412067 18.957535 0.427039 0.035364 -15.828180 0.535262 9.601215 4.500474 -3.263320 -7.446667 -4.879178 2.515116 27.137261 -3.782280 -1.792140 6.952210 -16.424297 0.158094 2.569856 -46.987957 1.435796 -7.950518 27.871418 -44.750105 -10.669421 -4.069541 2.887519 0.129180 0.689710 -0.694000 0.441800 7.026125 2.868572 5.382237 63.721419 16.103330 6.077452 63.021920 67.602543 33.581643 1.845473 -2.110563 -0.447790 0.386840 0.084920 -0.116140 
-0.627410 17.028020 -1.684310 -2.580466 11.585994 -0.246430 -14.564309 12.684973 2.159408 9.340753 -1.022412 -15.203692 -3.822519 6.338774 19.863672 -0.609815 4.743398 3.389298 0.186220 -0.287170 -0.063840 18.731388 -12.381907 2.385748 -20.062906 0.685760 -12.328045 9.949186 -9.107462 21.367909 -0.053102 -5.697744 2.819646 0.051580 0.942940 0.186010 -5.395132 2.004159 -6.426308 20.521740 0.712866 -0.361707 -17.482565 0.689128 10.074310 5.502488 -2.121162 -7.294065 -2.708484 1.477228 27.314031 -5.095600 -1.603680 7.120660 -16.760440 0.150557 2.554206 -45.240203 1.670683 -7.777986 31.666616 -47.534806 -12.565077 -4.092502 2.886960 0.116600 0.712510 -0.694170 0.416540 5.406088 2.137047 5.543724 65.162477 18.120456 8.869074 65.612072 71.173297 37.243141 1.895348 -2.051371 -0.440340 0.357300 0.089500 -0.139420 
-0.615720 17.045800 -1.700520 -2.544448 14.045317 -0.409394 -14.547296 12.611510 2.158440 9.154287 -1.109878 -15.463381 -3.348537 6.040227 19.534521 -0.678726 4.619853 3.427231 0.212550 -0.263650 -0.016640 18.739128 -12.546216 2.367232 -19.270662 0.563427 -11.450968 9.018603 -8.792044 21.040057 -0.059120 -5.648451 2.840095 0.082670 0.918750 0.193380 -5.513677 2.399295 -6.441809 21.311678 0.853877 -0.619916 -17.917935 0.649678 10.636647 6.199817 -0.947146 -7.303615 -0.550111 0.481295 27.529830 -6.254800 -1.474670 6.797590 -15.856366 0.193795 2.597205 -44.675144 1.284907 -7.265461 33.538812 -49.161635 -13.511976 -4.093710 2.868186 0.125790 0.722130 -0.684080 0.406870 3.251838 1.454184 5.703252 66.495230 20.799639 12.006499 65.811979 74.911888 39.547378 1.921162 -1.977951 -0.450980 0.354190 0.076310 -0.166040 
-0.594610 17.078820 -1.715000 -2.464445 16.311627 -0.871040 -14.530366 12.549537 2.173659 9.202500 -1.083272 -15.083905 -3.554446 5.920067 18.790158 -0.712429 4.500027 3.429048 0.300440 -0.177770 0.091960 18.744489 -12.702017 2.336548 -18.475515 0.424141 -10.342530 7.676077 -8.321213 20.601045 -0.110955 -5.531126 2.861157 0.115320 0.810350 0.225730 -5.635295 2.744895 -6.484517 21.899952 1.077241 -0.633969 -17.766422 0.742671 11.419439 6.743958 0.404367 -7.623558 1.779775 -1.126505 28.624022 -7.528100 -1.658480 5.223590 -14.861011 -0.383027 2.932427 -44.383255 1.099736 -7.154656 34.664780 -51.170925 -14.533374 -4.023505 2.876279 0.171220 0.674420 -0.603980 0.388130 1.344816 1.313708 6.021355 67.014443 23.292661 13.981587 62.744694 77.967006 39.289005 1.893635 -1.989124 -0.404090 0.311340 0.030960 -0.200080 
-0.575770 17.115100 -1.724060 -2.553509 18.255150 -1.325296 -14.514239 12.470487 2.176957 9.507125 -0.998926 -14.601481 -3.899393 5.866574 17.901971 -0.749485 4.425154 3.422771 0.344510 -0.135810 0.176840 18.753848 -12.829257 2.336010 -17.734564 0.328659 -9.185551 6.621857 -7.897627 19.859578 -0.152156 -5.437697 2.880391 0.130940 0.726310 0.252210 -5.756316 3.090151 -6.541907 22.269431 1.475232 -0.648024 -17.316597 0.997067 12.261838 7.309672 2.152778 -8.237532 4.837688 -2.936418 29.562607 -9.169430 -1.453890 4.127560 -14.234563 -1.642044 3.555228 -43.243710 1.539420 -7.307563 35.671953 -53.940495 -15.930580 -3.976923 2.858732 0.209810 0.648800 -0.541140 0.356300 -0.204187 1.554659 6.512139 66.798482 25.954798 14.286096 52.645772 79.876740 33.511624 1.694262 -2.184359 -0.379010 0.282300 0.012400 -0.238870 
